# Blender v2.93.4 OBJ File: ''
# www.blender.org
o farm_build_evolution_03
v -0.000000 0.001106 1.458858
v 1.458858 0.104884 -0.000000
v -0.000000 0.104884 1.458858
v 1.458858 0.001106 -0.000000
v -0.000000 0.258126 1.359250
v 1.359251 1.072916 0.000000
v 0.000000 1.072916 1.359251
v 1.359250 0.258126 -0.000000
v 0.000000 1.072916 1.458859
v 1.458859 1.176238 0.000000
v 0.000000 1.176238 1.458859
v 1.458859 1.072916 0.000000
v -1.458859 1.176238 0.000000
v 0.000000 1.072916 -1.458859
v -1.458859 1.072916 0.000000
v 0.000000 1.176238 -1.458859
v -1.359250 1.072916 0.000000
v -0.000000 0.258126 -1.359251
v -1.359251 0.258126 -0.000000
v 0.000000 1.072916 -1.359250
v -1.458859 0.104884 -0.000000
v -0.000000 0.001107 -1.458859
v -1.458859 0.001107 -0.000000
v -0.000000 0.104884 -1.458859
v 1.458858 0.001106 -0.000000
v -0.000000 0.104884 -1.458859
v 1.458858 0.104884 -0.000000
v -0.000000 0.001107 -1.458859
v 1.359250 0.258126 -0.000000
v 0.000000 1.072916 -1.359250
v 1.359251 1.072916 0.000000
v -0.000000 0.258126 -1.359251
v 1.458859 1.072916 0.000000
v 0.000000 1.176238 -1.458859
v 1.458859 1.176238 0.000000
v 0.000000 1.072916 -1.458859
v -1.458859 0.001107 -0.000000
v -0.000000 0.104884 1.458858
v -1.458859 0.104884 -0.000000
v -0.000000 0.001106 1.458858
v -1.359251 0.258126 -0.000000
v 0.000000 1.072916 1.359251
v -1.359250 1.072916 0.000000
v -0.000000 0.258126 1.359250
v -1.458859 1.072916 0.000000
v 0.000000 1.176238 1.458859
v -1.458859 1.176238 0.000000
v 0.000000 1.072916 1.458859
v 1.359250 0.258126 -0.000000
v -0.000000 0.104884 1.458858
v 1.458858 0.104884 -0.000000
v -0.000000 0.258126 1.359250
v -1.359251 0.258126 -0.000000
v -0.000000 0.104884 -1.458859
v -1.458859 0.104884 -0.000000
v -0.000000 0.258126 -1.359251
v -0.000000 0.258126 -1.359251
v 1.458858 0.104884 -0.000000
v -0.000000 0.104884 -1.458859
v 1.359250 0.258126 -0.000000
v -0.000000 0.258126 1.359250
v -1.458859 0.104884 -0.000000
v -0.000000 0.104884 1.458858
v -1.359251 0.258126 -0.000000
v 0.000000 1.282632 -1.225847
v 0.000000 1.282632 1.225847
v 1.225847 1.282632 0.000000
v -1.225847 1.282632 0.000000
v -1.458859 1.176238 0.000000
v 0.000000 1.282632 1.225847
v -1.225847 1.282632 0.000000
v 0.000000 1.176238 1.458859
v 1.225847 1.282632 0.000000
v 0.000000 1.176238 1.458859
v 1.458859 1.176238 0.000000
v 0.000000 1.282632 1.225847
v 0.000000 1.282632 -1.225847
v 1.458859 1.176238 0.000000
v 0.000000 1.176238 -1.458859
v 1.225847 1.282632 0.000000
v -1.458859 1.176238 0.000000
v 0.000000 1.282632 -1.225847
v 0.000000 1.176238 -1.458859
v -1.225847 1.282632 0.000000
vt 0.003508 0.501788
vt 0.499212 0.547633
vt 0.003508 0.547633
vt 0.499212 0.501788
vt 0.003508 0.597484
vt 0.499212 0.964966
vt 0.003508 0.964966
vt 0.499212 0.597484
vt 0.003508 0.968182
vt 0.499212 0.997995
vt 0.003508 0.997994
vt 0.499212 0.968185
vt 0.499212 0.997993
vt 0.003508 0.968194
vt 0.499212 0.968183
vt 0.003508 0.997998
vt 0.499212 0.964966
vt 0.003508 0.597484
vt 0.499212 0.597484
vt 0.003508 0.964966
vt 0.499212 0.547633
vt 0.003508 0.501789
vt 0.499212 0.501789
vt 0.003508 0.547633
vt 0.499212 0.501788
vt 0.995524 0.547633
vt 0.499212 0.547633
vt 0.995524 0.501788
vt 0.499212 0.597484
vt 0.995524 0.964966
vt 0.499212 0.964966
vt 0.995524 0.597484
vt 0.499212 0.968185
vt 0.995524 0.997992
vt 0.499212 0.997995
vt 0.995524 0.968183
vt 0.499212 0.501789
vt 0.995524 0.547633
vt 0.499212 0.547633
vt 0.995524 0.501788
vt 0.499212 0.597484
vt 0.995524 0.964966
vt 0.499212 0.964966
vt 0.995524 0.597484
vt 0.499212 0.968183
vt 0.995524 0.997994
vt 0.499212 0.997993
vt 0.995524 0.968182
vt 0.499212 0.597484
vt 0.003508 0.547633
vt 0.499212 0.547633
vt 0.003508 0.597484
vt 0.499212 0.597484
vt 0.003508 0.547633
vt 0.499212 0.547633
vt 0.003508 0.597484
vt 0.995524 0.597484
vt 0.499212 0.547633
vt 0.995524 0.547633
vt 0.499212 0.597484
vt 0.995524 0.597484
vt 0.499212 0.547633
vt 0.995524 0.547633
vt 0.499212 0.597484
vt 0.044084 0.457609
vt 0.458636 0.042549
vt 0.458636 0.457609
vt 0.044084 0.042549
vt 0.003508 0.001923
vt 0.458636 0.042549
vt 0.044084 0.042549
vt 0.499212 0.001923
vt 0.458636 0.457609
vt 0.499212 0.001923
vt 0.499212 0.498234
vt 0.458636 0.042549
vt 0.044084 0.457609
vt 0.499212 0.498234
vt 0.003508 0.498234
vt 0.458636 0.457609
vt 0.003508 0.001923
vt 0.044084 0.457609
vt 0.003508 0.498234
vt 0.044084 0.042549
vn 0.7071 0.0000 0.7071
vn -0.7071 0.0000 -0.7071
vn 0.7071 0.0000 -0.7071
vn -0.7071 0.0000 0.7071
vn 0.6425 0.4176 0.6425
vn -0.6425 0.4176 -0.6425
vn 0.6425 0.4176 -0.6425
vn -0.6425 0.4176 0.6425
vn 0.0000 1.0000 0.0000
vn -0.3836 0.8401 0.3836
vn 0.3836 0.8401 0.3836
vn 0.3836 0.8401 -0.3836
vn -0.3836 0.8401 -0.3836
s off
f 1/1/1 2/2/1 3/3/1
f 1/1/1 4/4/1 2/2/1
f 5/5/1 6/6/1 7/7/1
f 5/5/1 8/8/1 6/6/1
f 9/9/1 10/10/1 11/11/1
f 9/9/1 12/12/1 10/10/1
f 13/13/2 14/14/2 15/15/2
f 13/13/2 16/16/2 14/14/2
f 17/17/2 18/18/2 19/19/2
f 17/17/2 20/20/2 18/18/2
f 21/21/2 22/22/2 23/23/2
f 21/21/2 24/24/2 22/22/2
f 25/25/3 26/26/3 27/27/3
f 25/25/3 28/28/3 26/26/3
f 29/29/3 30/30/3 31/31/3
f 29/29/3 32/32/3 30/30/3
f 33/33/3 34/34/3 35/35/3
f 33/33/3 36/36/3 34/34/3
f 37/37/4 38/38/4 39/39/4
f 37/37/4 40/40/4 38/38/4
f 41/41/4 42/42/4 43/43/4
f 41/41/4 44/44/4 42/42/4
f 45/45/4 46/46/4 47/47/4
f 45/45/4 48/48/4 46/46/4
f 49/49/5 50/50/5 51/51/5
f 49/49/5 52/52/5 50/50/5
f 53/53/6 54/54/6 55/55/6
f 53/53/6 56/56/6 54/54/6
f 57/57/7 58/58/7 59/59/7
f 57/57/7 60/60/7 58/58/7
f 61/61/8 62/62/8 63/63/8
f 61/61/8 64/64/8 62/62/8
f 65/65/9 66/66/9 67/67/9
f 65/65/9 68/68/9 66/66/9
f 69/69/10 70/70/10 71/71/10
f 69/69/10 72/72/10 70/70/10
f 73/73/11 74/74/11 75/75/11
f 73/73/11 76/76/11 74/74/11
f 77/77/12 78/78/12 79/79/12
f 77/77/12 80/80/12 78/78/12
f 81/81/13 82/82/13 83/83/13
f 81/81/13 84/84/13 82/82/13
